<?xml version="1.0" encoding="UTF-8" standalone="no"?>
<svg
   xmlns:dc="http://purl.org/dc/elements/1.1/"
   xmlns:cc="http://creativecommons.org/ns#"
   xmlns:rdf="http://www.w3.org/1999/02/22-rdf-syntax-ns#"
   xmlns:svg="http://www.w3.org/2000/svg"
   xmlns="http://www.w3.org/2000/svg"
   xmlns:sodipodi="http://sodipodi.sourceforge.net/DTD/sodipodi-0.dtd"
   xmlns:inkscape="http://www.inkscape.org/namespaces/inkscape"
   width="256"
   height="256"
   viewBox="0 0 17339.733 17339.733"
   version="1.1"
   id="svg1868"
   inkscape:version="1.0.1 (3bc2e813f5, 2020-09-07)"
   sodipodi:docname="logo.svg"
   inkscape:export-filename="/home/diego/Software/morlet/assets/logo.png"
   inkscape:export-xdpi="96"
   inkscape:export-ydpi="96">
  <defs
     id="defs1862" />
  <sodipodi:namedview
     id="base"
     pagecolor="#ffffff"
     bordercolor="#666666"
     borderopacity="1.0"
     inkscape:pageopacity="0.0"
     inkscape:pageshadow="2"
     inkscape:zoom="1.979899"
     inkscape:cx="243.06791"
     inkscape:cy="147.14199"
     inkscape:document-units="mm"
     inkscape:current-layer="layer1"
     inkscape:document-rotation="0"
     showgrid="false"
     units="px"
     inkscape:window-width="1920"
     inkscape:window-height="1016"
     inkscape:window-x="0"
     inkscape:window-y="27"
     inkscape:window-maximized="1" />
  <metadata
     id="metadata1865">
    <rdf:RDF>
      <cc:Work
         rdf:about="">
        <dc:format>image/svg+xml</dc:format>
        <dc:type
           rdf:resource="http://purl.org/dc/dcmitype/StillImage" />
        <dc:title />
      </cc:Work>
    </rdf:RDF>
  </metadata>
  <g
     inkscape:label="Layer 1"
     inkscape:groupmode="layer"
     id="layer1">
    <path
       d="m 50.316725,9038.211 279.722055,-0.5453 307.91935,64.956 307.91961,-8.2921 307.91956,-105.3117 307.643,-226.6555 307.9197,-283.5954 307.9197,-234.9471 307.9196,-24.0477 307.643,299.6274 315.9354,607.5465 307.9196,769.523 307.9194,623.5779 c 317.5942,388.036 406.7987,-60.753 615.5629,-461.603 l 307.9197,-1296.0816 307.9192,-1620.0323 307.6433,-1320.4057 c 200.4224,-747.9867 445.1874,-69.6904 615.8393,567.1912 l 307.6429,2130.284 307.9224,2656.8424 307.9198,2162.624 c 360.058,1417.068 351.2678,455.543 615.5625,-404.939 l 307.9197,-2745.846 307.9195,-3394.0262 307.9195,-2762.1546 c 317.8481,-1194.2125 281.8024,-1150.1846 615.5628,0 l 307.9194,2762.1546 307.6433,3394.0262 307.9195,2745.846 c 229.1026,855.023 244.7736,1574.588 623.8556,404.939 l 307.919,-2162.624 307.643,-2656.8424 307.92,-2130.284 c 194.922,-727.456 210.898,-1268.0912 615.563,-567.1912 l 307.92,1320.4057 307.919,1620.0323 307.92,1296.0816 c 294.823,488.219 274.61,802.554 615.562,461.603 l 307.92,-623.5779 307.919,-769.523 307.644,-607.5465 307.92,-299.6274 307.918,24.0477 307.644,234.9471 307.919,283.5954 307.919,226.6555 307.92,105.3117 307.644,8.2921 307.918,-64.956 338.743,1.2659"
       style="fill:none;stroke:#000000;stroke-width:915.895;stroke-linecap:butt;stroke-linejoin:miter;stroke-miterlimit:2.5;stroke-dasharray:none;stroke-opacity:1"
       id="path468"
       sodipodi:nodetypes="cccccccccccccccccccccccccccccccccccccccccccccccccc" />
  </g>
</svg>
